G04 (created by PCBNEW-RS274X (2012-apr-16-27)-stable) date Sun 23 Mar 2014 20:21:50 GMT*
G01*
G70*
G90*
%MOIN*%
G04 Gerber Fmt 3.4, Leading zero omitted, Abs format*
%FSLAX34Y34*%
G04 APERTURE LIST*
%ADD10C,0.006000*%
%ADD11C,0.070900*%
%ADD12C,0.055000*%
%ADD13R,0.055000X0.055000*%
%ADD14C,0.065000*%
%ADD15C,0.126000*%
%ADD16C,0.055100*%
%ADD17R,0.055100X0.055100*%
%ADD18C,0.010000*%
G04 APERTURE END LIST*
G54D10*
G54D11*
X62400Y-20035D03*
X62400Y-12135D03*
G54D12*
X52450Y-23650D03*
X55950Y-23650D03*
G54D13*
X57175Y-15525D03*
G54D12*
X57175Y-14525D03*
X57175Y-13525D03*
X57175Y-12525D03*
X54175Y-12525D03*
X54175Y-13525D03*
X54175Y-14525D03*
X54175Y-15525D03*
G54D13*
X58200Y-19125D03*
G54D12*
X57200Y-19125D03*
X56200Y-19125D03*
G54D14*
X61910Y-24050D03*
X57990Y-24050D03*
G54D15*
X54425Y-20925D03*
G54D16*
X54175Y-18830D03*
X54175Y-17850D03*
X54175Y-16870D03*
X52575Y-16525D03*
G54D17*
X52575Y-15525D03*
G54D16*
X52575Y-14525D03*
X52575Y-13525D03*
X52575Y-12525D03*
X52575Y-11525D03*
G54D10*
G36*
X63000Y-24475D02*
X62298Y-24475D01*
X62397Y-24376D01*
X62485Y-24165D01*
X62485Y-23936D01*
X62398Y-23725D01*
X62236Y-23563D01*
X62025Y-23475D01*
X61796Y-23475D01*
X61585Y-23562D01*
X61423Y-23724D01*
X61335Y-23935D01*
X61335Y-24164D01*
X61422Y-24375D01*
X61522Y-24475D01*
X58724Y-24475D01*
X58724Y-19450D01*
X58724Y-19351D01*
X58724Y-18801D01*
X58686Y-18709D01*
X58616Y-18639D01*
X58525Y-18601D01*
X58426Y-18601D01*
X57876Y-18601D01*
X57784Y-18639D01*
X57714Y-18709D01*
X57700Y-18742D01*
X57700Y-14630D01*
X57700Y-14421D01*
X57620Y-14228D01*
X57473Y-14080D01*
X57339Y-14024D01*
X57472Y-13970D01*
X57620Y-13823D01*
X57700Y-13630D01*
X57700Y-13421D01*
X57694Y-13406D01*
X57694Y-12599D01*
X57683Y-12395D01*
X57627Y-12258D01*
X57536Y-12235D01*
X57465Y-12306D01*
X57465Y-12164D01*
X57442Y-12073D01*
X57249Y-12006D01*
X57045Y-12017D01*
X56908Y-12073D01*
X56885Y-12164D01*
X57175Y-12454D01*
X57465Y-12164D01*
X57465Y-12306D01*
X57246Y-12525D01*
X57536Y-12815D01*
X57627Y-12792D01*
X57694Y-12599D01*
X57694Y-13406D01*
X57620Y-13228D01*
X57473Y-13080D01*
X57332Y-13021D01*
X57442Y-12977D01*
X57465Y-12886D01*
X57175Y-12596D01*
X57104Y-12667D01*
X57104Y-12525D01*
X56814Y-12235D01*
X56723Y-12258D01*
X56656Y-12451D01*
X56667Y-12655D01*
X56723Y-12792D01*
X56814Y-12815D01*
X57104Y-12525D01*
X57104Y-12667D01*
X56885Y-12886D01*
X56908Y-12977D01*
X57026Y-13018D01*
X56878Y-13080D01*
X56730Y-13227D01*
X56650Y-13420D01*
X56650Y-13629D01*
X56730Y-13822D01*
X56877Y-13970D01*
X57010Y-14025D01*
X56878Y-14080D01*
X56730Y-14227D01*
X56650Y-14420D01*
X56650Y-14629D01*
X56730Y-14822D01*
X56877Y-14970D01*
X56951Y-15001D01*
X56851Y-15001D01*
X56759Y-15039D01*
X56689Y-15109D01*
X56651Y-15200D01*
X56651Y-15299D01*
X56651Y-15849D01*
X56689Y-15941D01*
X56759Y-16011D01*
X56850Y-16049D01*
X56949Y-16049D01*
X57499Y-16049D01*
X57591Y-16011D01*
X57661Y-15941D01*
X57699Y-15850D01*
X57699Y-15751D01*
X57699Y-15201D01*
X57661Y-15109D01*
X57591Y-15039D01*
X57500Y-15001D01*
X57401Y-15001D01*
X57397Y-15001D01*
X57472Y-14970D01*
X57620Y-14823D01*
X57700Y-14630D01*
X57700Y-18742D01*
X57676Y-18800D01*
X57676Y-18899D01*
X57676Y-18902D01*
X57645Y-18828D01*
X57498Y-18680D01*
X57305Y-18600D01*
X57096Y-18600D01*
X56903Y-18680D01*
X56755Y-18827D01*
X56699Y-18960D01*
X56645Y-18828D01*
X56498Y-18680D01*
X56305Y-18600D01*
X56096Y-18600D01*
X55903Y-18680D01*
X55755Y-18827D01*
X55675Y-19020D01*
X55675Y-19229D01*
X55755Y-19422D01*
X55902Y-19570D01*
X56095Y-19650D01*
X56304Y-19650D01*
X56497Y-19570D01*
X56645Y-19423D01*
X56700Y-19289D01*
X56755Y-19422D01*
X56902Y-19570D01*
X57095Y-19650D01*
X57304Y-19650D01*
X57497Y-19570D01*
X57645Y-19423D01*
X57676Y-19348D01*
X57676Y-19449D01*
X57714Y-19541D01*
X57784Y-19611D01*
X57875Y-19649D01*
X57974Y-19649D01*
X58524Y-19649D01*
X58616Y-19611D01*
X58686Y-19541D01*
X58724Y-19450D01*
X58724Y-24475D01*
X58378Y-24475D01*
X58477Y-24376D01*
X58565Y-24165D01*
X58565Y-23936D01*
X58478Y-23725D01*
X58316Y-23563D01*
X58105Y-23475D01*
X57876Y-23475D01*
X57665Y-23562D01*
X57503Y-23724D01*
X57415Y-23935D01*
X57415Y-24164D01*
X57502Y-24375D01*
X57602Y-24475D01*
X56475Y-24475D01*
X56475Y-23755D01*
X56475Y-23546D01*
X56395Y-23353D01*
X56248Y-23205D01*
X56055Y-23125D01*
X55846Y-23125D01*
X55653Y-23205D01*
X55505Y-23352D01*
X55425Y-23545D01*
X55425Y-23754D01*
X55505Y-23947D01*
X55652Y-24095D01*
X55845Y-24175D01*
X56054Y-24175D01*
X56247Y-24095D01*
X56395Y-23948D01*
X56475Y-23755D01*
X56475Y-24475D01*
X55305Y-24475D01*
X55305Y-21101D01*
X55305Y-20751D01*
X55171Y-20427D01*
X54924Y-20180D01*
X54700Y-20086D01*
X54700Y-18935D01*
X54700Y-18726D01*
X54700Y-16975D01*
X54700Y-16766D01*
X54700Y-15630D01*
X54700Y-15421D01*
X54620Y-15228D01*
X54473Y-15080D01*
X54339Y-15024D01*
X54472Y-14970D01*
X54620Y-14823D01*
X54700Y-14630D01*
X54700Y-14421D01*
X54620Y-14228D01*
X54473Y-14080D01*
X54339Y-14024D01*
X54472Y-13970D01*
X54620Y-13823D01*
X54700Y-13630D01*
X54700Y-13421D01*
X54620Y-13228D01*
X54473Y-13080D01*
X54339Y-13024D01*
X54472Y-12970D01*
X54620Y-12823D01*
X54700Y-12630D01*
X54700Y-12421D01*
X54620Y-12228D01*
X54473Y-12080D01*
X54280Y-12000D01*
X54071Y-12000D01*
X53878Y-12080D01*
X53730Y-12227D01*
X53650Y-12420D01*
X53650Y-12629D01*
X53730Y-12822D01*
X53877Y-12970D01*
X54010Y-13025D01*
X53878Y-13080D01*
X53730Y-13227D01*
X53650Y-13420D01*
X53650Y-13629D01*
X53730Y-13822D01*
X53877Y-13970D01*
X54010Y-14025D01*
X53878Y-14080D01*
X53730Y-14227D01*
X53650Y-14420D01*
X53650Y-14629D01*
X53730Y-14822D01*
X53877Y-14970D01*
X54010Y-15025D01*
X53878Y-15080D01*
X53730Y-15227D01*
X53650Y-15420D01*
X53650Y-15629D01*
X53730Y-15822D01*
X53877Y-15970D01*
X54070Y-16050D01*
X54279Y-16050D01*
X54472Y-15970D01*
X54620Y-15823D01*
X54700Y-15630D01*
X54700Y-16766D01*
X54620Y-16573D01*
X54473Y-16425D01*
X54280Y-16345D01*
X54071Y-16345D01*
X53878Y-16425D01*
X53730Y-16572D01*
X53650Y-16765D01*
X53650Y-16974D01*
X53730Y-17167D01*
X53877Y-17315D01*
X53993Y-17363D01*
X53908Y-17398D01*
X53885Y-17489D01*
X54175Y-17779D01*
X54465Y-17489D01*
X54442Y-17398D01*
X54349Y-17365D01*
X54472Y-17315D01*
X54620Y-17168D01*
X54700Y-16975D01*
X54700Y-18726D01*
X54694Y-18711D01*
X54694Y-17924D01*
X54683Y-17720D01*
X54627Y-17583D01*
X54536Y-17560D01*
X54246Y-17850D01*
X54536Y-18140D01*
X54627Y-18117D01*
X54694Y-17924D01*
X54694Y-18711D01*
X54620Y-18533D01*
X54473Y-18385D01*
X54356Y-18336D01*
X54442Y-18302D01*
X54465Y-18211D01*
X54175Y-17921D01*
X54104Y-17992D01*
X54104Y-17850D01*
X53814Y-17560D01*
X53723Y-17583D01*
X53656Y-17776D01*
X53667Y-17980D01*
X53723Y-18117D01*
X53814Y-18140D01*
X54104Y-17850D01*
X54104Y-17992D01*
X53885Y-18211D01*
X53908Y-18302D01*
X54000Y-18334D01*
X53878Y-18385D01*
X53730Y-18532D01*
X53650Y-18725D01*
X53650Y-18934D01*
X53730Y-19127D01*
X53877Y-19275D01*
X54070Y-19355D01*
X54279Y-19355D01*
X54472Y-19275D01*
X54620Y-19128D01*
X54700Y-18935D01*
X54700Y-20086D01*
X54601Y-20045D01*
X54251Y-20045D01*
X53927Y-20179D01*
X53680Y-20426D01*
X53545Y-20749D01*
X53545Y-21099D01*
X53679Y-21423D01*
X53926Y-21670D01*
X54249Y-21805D01*
X54599Y-21805D01*
X54923Y-21671D01*
X55170Y-21424D01*
X55305Y-21101D01*
X55305Y-24475D01*
X53100Y-24475D01*
X53100Y-16630D01*
X53100Y-16421D01*
X53020Y-16228D01*
X52873Y-16080D01*
X52798Y-16049D01*
X52801Y-16049D01*
X52900Y-16049D01*
X52991Y-16011D01*
X53061Y-15941D01*
X53099Y-15849D01*
X53100Y-15637D01*
X53100Y-15413D01*
X53099Y-15201D01*
X53061Y-15109D01*
X52991Y-15039D01*
X52900Y-15001D01*
X52801Y-15001D01*
X52797Y-15000D01*
X52872Y-14970D01*
X53020Y-14823D01*
X53100Y-14630D01*
X53100Y-14421D01*
X53020Y-14228D01*
X52873Y-14080D01*
X52739Y-14024D01*
X52872Y-13970D01*
X53020Y-13823D01*
X53100Y-13630D01*
X53100Y-13421D01*
X53020Y-13228D01*
X52873Y-13080D01*
X52739Y-13024D01*
X52872Y-12970D01*
X53020Y-12823D01*
X53100Y-12630D01*
X53100Y-12421D01*
X53020Y-12228D01*
X52873Y-12080D01*
X52739Y-12024D01*
X52872Y-11970D01*
X53020Y-11823D01*
X53100Y-11630D01*
X53100Y-11421D01*
X53020Y-11228D01*
X52873Y-11080D01*
X52680Y-11000D01*
X52471Y-11000D01*
X52278Y-11080D01*
X52130Y-11227D01*
X52050Y-11420D01*
X52050Y-11629D01*
X52130Y-11822D01*
X52277Y-11970D01*
X52410Y-12025D01*
X52278Y-12080D01*
X52130Y-12227D01*
X52050Y-12420D01*
X52050Y-12629D01*
X52130Y-12822D01*
X52277Y-12970D01*
X52410Y-13025D01*
X52278Y-13080D01*
X52130Y-13227D01*
X52050Y-13420D01*
X52050Y-13629D01*
X52130Y-13822D01*
X52277Y-13970D01*
X52410Y-14025D01*
X52278Y-14080D01*
X52130Y-14227D01*
X52050Y-14420D01*
X52050Y-14629D01*
X52130Y-14822D01*
X52277Y-14970D01*
X52351Y-15000D01*
X52349Y-15001D01*
X52250Y-15001D01*
X52159Y-15039D01*
X52089Y-15109D01*
X52051Y-15201D01*
X52050Y-15413D01*
X52112Y-15475D01*
X52475Y-15475D01*
X52525Y-15475D01*
X52625Y-15475D01*
X52675Y-15475D01*
X53038Y-15475D01*
X53100Y-15413D01*
X53100Y-15637D01*
X53038Y-15575D01*
X52675Y-15575D01*
X52625Y-15575D01*
X52525Y-15575D01*
X52475Y-15575D01*
X52112Y-15575D01*
X52050Y-15637D01*
X52051Y-15849D01*
X52089Y-15941D01*
X52159Y-16011D01*
X52250Y-16049D01*
X52349Y-16049D01*
X52278Y-16080D01*
X52130Y-16227D01*
X52050Y-16420D01*
X52050Y-16629D01*
X52130Y-16822D01*
X52277Y-16970D01*
X52470Y-17050D01*
X52679Y-17050D01*
X52872Y-16970D01*
X53020Y-16823D01*
X53100Y-16630D01*
X53100Y-24475D01*
X52969Y-24475D01*
X52969Y-23724D01*
X52958Y-23520D01*
X52902Y-23383D01*
X52811Y-23360D01*
X52740Y-23431D01*
X52740Y-23289D01*
X52717Y-23198D01*
X52524Y-23131D01*
X52320Y-23142D01*
X52183Y-23198D01*
X52160Y-23289D01*
X52450Y-23579D01*
X52740Y-23289D01*
X52740Y-23431D01*
X52521Y-23650D01*
X52811Y-23940D01*
X52902Y-23917D01*
X52969Y-23724D01*
X52969Y-24475D01*
X52740Y-24475D01*
X52740Y-24011D01*
X52450Y-23721D01*
X52379Y-23792D01*
X52379Y-23650D01*
X52089Y-23360D01*
X51998Y-23383D01*
X51931Y-23576D01*
X51942Y-23780D01*
X51998Y-23917D01*
X52089Y-23940D01*
X52379Y-23650D01*
X52379Y-23792D01*
X52160Y-24011D01*
X52183Y-24102D01*
X52376Y-24169D01*
X52580Y-24158D01*
X52717Y-24102D01*
X52740Y-24011D01*
X52740Y-24475D01*
X51825Y-24475D01*
X51825Y-22275D01*
X51825Y-20450D01*
X51825Y-10775D01*
X61500Y-10775D01*
X63000Y-10775D01*
X63000Y-19908D01*
X62996Y-19898D01*
X62996Y-12228D01*
X62986Y-11993D01*
X62915Y-11822D01*
X62816Y-11789D01*
X62746Y-11859D01*
X62746Y-11719D01*
X62713Y-11620D01*
X62493Y-11539D01*
X62258Y-11549D01*
X62087Y-11620D01*
X62054Y-11719D01*
X62400Y-12064D01*
X62746Y-11719D01*
X62746Y-11859D01*
X62471Y-12135D01*
X62816Y-12481D01*
X62915Y-12448D01*
X62996Y-12228D01*
X62996Y-19898D01*
X62912Y-19694D01*
X62746Y-19528D01*
X62746Y-12551D01*
X62400Y-12206D01*
X62329Y-12276D01*
X62329Y-12135D01*
X61984Y-11789D01*
X61885Y-11822D01*
X61804Y-12042D01*
X61814Y-12277D01*
X61885Y-12448D01*
X61984Y-12481D01*
X62329Y-12135D01*
X62329Y-12276D01*
X62054Y-12551D01*
X62087Y-12650D01*
X62307Y-12731D01*
X62542Y-12721D01*
X62713Y-12650D01*
X62746Y-12551D01*
X62746Y-19528D01*
X62742Y-19524D01*
X62521Y-19432D01*
X62281Y-19432D01*
X62059Y-19523D01*
X61889Y-19693D01*
X61797Y-19914D01*
X61797Y-20154D01*
X61888Y-20376D01*
X62058Y-20546D01*
X62279Y-20638D01*
X62519Y-20638D01*
X62741Y-20547D01*
X62911Y-20377D01*
X63000Y-20163D01*
X63000Y-24475D01*
X63000Y-24475D01*
G37*
G54D18*
X63000Y-24475D02*
X62298Y-24475D01*
X62397Y-24376D01*
X62485Y-24165D01*
X62485Y-23936D01*
X62398Y-23725D01*
X62236Y-23563D01*
X62025Y-23475D01*
X61796Y-23475D01*
X61585Y-23562D01*
X61423Y-23724D01*
X61335Y-23935D01*
X61335Y-24164D01*
X61422Y-24375D01*
X61522Y-24475D01*
X58724Y-24475D01*
X58724Y-19450D01*
X58724Y-19351D01*
X58724Y-18801D01*
X58686Y-18709D01*
X58616Y-18639D01*
X58525Y-18601D01*
X58426Y-18601D01*
X57876Y-18601D01*
X57784Y-18639D01*
X57714Y-18709D01*
X57700Y-18742D01*
X57700Y-14630D01*
X57700Y-14421D01*
X57620Y-14228D01*
X57473Y-14080D01*
X57339Y-14024D01*
X57472Y-13970D01*
X57620Y-13823D01*
X57700Y-13630D01*
X57700Y-13421D01*
X57694Y-13406D01*
X57694Y-12599D01*
X57683Y-12395D01*
X57627Y-12258D01*
X57536Y-12235D01*
X57465Y-12306D01*
X57465Y-12164D01*
X57442Y-12073D01*
X57249Y-12006D01*
X57045Y-12017D01*
X56908Y-12073D01*
X56885Y-12164D01*
X57175Y-12454D01*
X57465Y-12164D01*
X57465Y-12306D01*
X57246Y-12525D01*
X57536Y-12815D01*
X57627Y-12792D01*
X57694Y-12599D01*
X57694Y-13406D01*
X57620Y-13228D01*
X57473Y-13080D01*
X57332Y-13021D01*
X57442Y-12977D01*
X57465Y-12886D01*
X57175Y-12596D01*
X57104Y-12667D01*
X57104Y-12525D01*
X56814Y-12235D01*
X56723Y-12258D01*
X56656Y-12451D01*
X56667Y-12655D01*
X56723Y-12792D01*
X56814Y-12815D01*
X57104Y-12525D01*
X57104Y-12667D01*
X56885Y-12886D01*
X56908Y-12977D01*
X57026Y-13018D01*
X56878Y-13080D01*
X56730Y-13227D01*
X56650Y-13420D01*
X56650Y-13629D01*
X56730Y-13822D01*
X56877Y-13970D01*
X57010Y-14025D01*
X56878Y-14080D01*
X56730Y-14227D01*
X56650Y-14420D01*
X56650Y-14629D01*
X56730Y-14822D01*
X56877Y-14970D01*
X56951Y-15001D01*
X56851Y-15001D01*
X56759Y-15039D01*
X56689Y-15109D01*
X56651Y-15200D01*
X56651Y-15299D01*
X56651Y-15849D01*
X56689Y-15941D01*
X56759Y-16011D01*
X56850Y-16049D01*
X56949Y-16049D01*
X57499Y-16049D01*
X57591Y-16011D01*
X57661Y-15941D01*
X57699Y-15850D01*
X57699Y-15751D01*
X57699Y-15201D01*
X57661Y-15109D01*
X57591Y-15039D01*
X57500Y-15001D01*
X57401Y-15001D01*
X57397Y-15001D01*
X57472Y-14970D01*
X57620Y-14823D01*
X57700Y-14630D01*
X57700Y-18742D01*
X57676Y-18800D01*
X57676Y-18899D01*
X57676Y-18902D01*
X57645Y-18828D01*
X57498Y-18680D01*
X57305Y-18600D01*
X57096Y-18600D01*
X56903Y-18680D01*
X56755Y-18827D01*
X56699Y-18960D01*
X56645Y-18828D01*
X56498Y-18680D01*
X56305Y-18600D01*
X56096Y-18600D01*
X55903Y-18680D01*
X55755Y-18827D01*
X55675Y-19020D01*
X55675Y-19229D01*
X55755Y-19422D01*
X55902Y-19570D01*
X56095Y-19650D01*
X56304Y-19650D01*
X56497Y-19570D01*
X56645Y-19423D01*
X56700Y-19289D01*
X56755Y-19422D01*
X56902Y-19570D01*
X57095Y-19650D01*
X57304Y-19650D01*
X57497Y-19570D01*
X57645Y-19423D01*
X57676Y-19348D01*
X57676Y-19449D01*
X57714Y-19541D01*
X57784Y-19611D01*
X57875Y-19649D01*
X57974Y-19649D01*
X58524Y-19649D01*
X58616Y-19611D01*
X58686Y-19541D01*
X58724Y-19450D01*
X58724Y-24475D01*
X58378Y-24475D01*
X58477Y-24376D01*
X58565Y-24165D01*
X58565Y-23936D01*
X58478Y-23725D01*
X58316Y-23563D01*
X58105Y-23475D01*
X57876Y-23475D01*
X57665Y-23562D01*
X57503Y-23724D01*
X57415Y-23935D01*
X57415Y-24164D01*
X57502Y-24375D01*
X57602Y-24475D01*
X56475Y-24475D01*
X56475Y-23755D01*
X56475Y-23546D01*
X56395Y-23353D01*
X56248Y-23205D01*
X56055Y-23125D01*
X55846Y-23125D01*
X55653Y-23205D01*
X55505Y-23352D01*
X55425Y-23545D01*
X55425Y-23754D01*
X55505Y-23947D01*
X55652Y-24095D01*
X55845Y-24175D01*
X56054Y-24175D01*
X56247Y-24095D01*
X56395Y-23948D01*
X56475Y-23755D01*
X56475Y-24475D01*
X55305Y-24475D01*
X55305Y-21101D01*
X55305Y-20751D01*
X55171Y-20427D01*
X54924Y-20180D01*
X54700Y-20086D01*
X54700Y-18935D01*
X54700Y-18726D01*
X54700Y-16975D01*
X54700Y-16766D01*
X54700Y-15630D01*
X54700Y-15421D01*
X54620Y-15228D01*
X54473Y-15080D01*
X54339Y-15024D01*
X54472Y-14970D01*
X54620Y-14823D01*
X54700Y-14630D01*
X54700Y-14421D01*
X54620Y-14228D01*
X54473Y-14080D01*
X54339Y-14024D01*
X54472Y-13970D01*
X54620Y-13823D01*
X54700Y-13630D01*
X54700Y-13421D01*
X54620Y-13228D01*
X54473Y-13080D01*
X54339Y-13024D01*
X54472Y-12970D01*
X54620Y-12823D01*
X54700Y-12630D01*
X54700Y-12421D01*
X54620Y-12228D01*
X54473Y-12080D01*
X54280Y-12000D01*
X54071Y-12000D01*
X53878Y-12080D01*
X53730Y-12227D01*
X53650Y-12420D01*
X53650Y-12629D01*
X53730Y-12822D01*
X53877Y-12970D01*
X54010Y-13025D01*
X53878Y-13080D01*
X53730Y-13227D01*
X53650Y-13420D01*
X53650Y-13629D01*
X53730Y-13822D01*
X53877Y-13970D01*
X54010Y-14025D01*
X53878Y-14080D01*
X53730Y-14227D01*
X53650Y-14420D01*
X53650Y-14629D01*
X53730Y-14822D01*
X53877Y-14970D01*
X54010Y-15025D01*
X53878Y-15080D01*
X53730Y-15227D01*
X53650Y-15420D01*
X53650Y-15629D01*
X53730Y-15822D01*
X53877Y-15970D01*
X54070Y-16050D01*
X54279Y-16050D01*
X54472Y-15970D01*
X54620Y-15823D01*
X54700Y-15630D01*
X54700Y-16766D01*
X54620Y-16573D01*
X54473Y-16425D01*
X54280Y-16345D01*
X54071Y-16345D01*
X53878Y-16425D01*
X53730Y-16572D01*
X53650Y-16765D01*
X53650Y-16974D01*
X53730Y-17167D01*
X53877Y-17315D01*
X53993Y-17363D01*
X53908Y-17398D01*
X53885Y-17489D01*
X54175Y-17779D01*
X54465Y-17489D01*
X54442Y-17398D01*
X54349Y-17365D01*
X54472Y-17315D01*
X54620Y-17168D01*
X54700Y-16975D01*
X54700Y-18726D01*
X54694Y-18711D01*
X54694Y-17924D01*
X54683Y-17720D01*
X54627Y-17583D01*
X54536Y-17560D01*
X54246Y-17850D01*
X54536Y-18140D01*
X54627Y-18117D01*
X54694Y-17924D01*
X54694Y-18711D01*
X54620Y-18533D01*
X54473Y-18385D01*
X54356Y-18336D01*
X54442Y-18302D01*
X54465Y-18211D01*
X54175Y-17921D01*
X54104Y-17992D01*
X54104Y-17850D01*
X53814Y-17560D01*
X53723Y-17583D01*
X53656Y-17776D01*
X53667Y-17980D01*
X53723Y-18117D01*
X53814Y-18140D01*
X54104Y-17850D01*
X54104Y-17992D01*
X53885Y-18211D01*
X53908Y-18302D01*
X54000Y-18334D01*
X53878Y-18385D01*
X53730Y-18532D01*
X53650Y-18725D01*
X53650Y-18934D01*
X53730Y-19127D01*
X53877Y-19275D01*
X54070Y-19355D01*
X54279Y-19355D01*
X54472Y-19275D01*
X54620Y-19128D01*
X54700Y-18935D01*
X54700Y-20086D01*
X54601Y-20045D01*
X54251Y-20045D01*
X53927Y-20179D01*
X53680Y-20426D01*
X53545Y-20749D01*
X53545Y-21099D01*
X53679Y-21423D01*
X53926Y-21670D01*
X54249Y-21805D01*
X54599Y-21805D01*
X54923Y-21671D01*
X55170Y-21424D01*
X55305Y-21101D01*
X55305Y-24475D01*
X53100Y-24475D01*
X53100Y-16630D01*
X53100Y-16421D01*
X53020Y-16228D01*
X52873Y-16080D01*
X52798Y-16049D01*
X52801Y-16049D01*
X52900Y-16049D01*
X52991Y-16011D01*
X53061Y-15941D01*
X53099Y-15849D01*
X53100Y-15637D01*
X53100Y-15413D01*
X53099Y-15201D01*
X53061Y-15109D01*
X52991Y-15039D01*
X52900Y-15001D01*
X52801Y-15001D01*
X52797Y-15000D01*
X52872Y-14970D01*
X53020Y-14823D01*
X53100Y-14630D01*
X53100Y-14421D01*
X53020Y-14228D01*
X52873Y-14080D01*
X52739Y-14024D01*
X52872Y-13970D01*
X53020Y-13823D01*
X53100Y-13630D01*
X53100Y-13421D01*
X53020Y-13228D01*
X52873Y-13080D01*
X52739Y-13024D01*
X52872Y-12970D01*
X53020Y-12823D01*
X53100Y-12630D01*
X53100Y-12421D01*
X53020Y-12228D01*
X52873Y-12080D01*
X52739Y-12024D01*
X52872Y-11970D01*
X53020Y-11823D01*
X53100Y-11630D01*
X53100Y-11421D01*
X53020Y-11228D01*
X52873Y-11080D01*
X52680Y-11000D01*
X52471Y-11000D01*
X52278Y-11080D01*
X52130Y-11227D01*
X52050Y-11420D01*
X52050Y-11629D01*
X52130Y-11822D01*
X52277Y-11970D01*
X52410Y-12025D01*
X52278Y-12080D01*
X52130Y-12227D01*
X52050Y-12420D01*
X52050Y-12629D01*
X52130Y-12822D01*
X52277Y-12970D01*
X52410Y-13025D01*
X52278Y-13080D01*
X52130Y-13227D01*
X52050Y-13420D01*
X52050Y-13629D01*
X52130Y-13822D01*
X52277Y-13970D01*
X52410Y-14025D01*
X52278Y-14080D01*
X52130Y-14227D01*
X52050Y-14420D01*
X52050Y-14629D01*
X52130Y-14822D01*
X52277Y-14970D01*
X52351Y-15000D01*
X52349Y-15001D01*
X52250Y-15001D01*
X52159Y-15039D01*
X52089Y-15109D01*
X52051Y-15201D01*
X52050Y-15413D01*
X52112Y-15475D01*
X52475Y-15475D01*
X52525Y-15475D01*
X52625Y-15475D01*
X52675Y-15475D01*
X53038Y-15475D01*
X53100Y-15413D01*
X53100Y-15637D01*
X53038Y-15575D01*
X52675Y-15575D01*
X52625Y-15575D01*
X52525Y-15575D01*
X52475Y-15575D01*
X52112Y-15575D01*
X52050Y-15637D01*
X52051Y-15849D01*
X52089Y-15941D01*
X52159Y-16011D01*
X52250Y-16049D01*
X52349Y-16049D01*
X52278Y-16080D01*
X52130Y-16227D01*
X52050Y-16420D01*
X52050Y-16629D01*
X52130Y-16822D01*
X52277Y-16970D01*
X52470Y-17050D01*
X52679Y-17050D01*
X52872Y-16970D01*
X53020Y-16823D01*
X53100Y-16630D01*
X53100Y-24475D01*
X52969Y-24475D01*
X52969Y-23724D01*
X52958Y-23520D01*
X52902Y-23383D01*
X52811Y-23360D01*
X52740Y-23431D01*
X52740Y-23289D01*
X52717Y-23198D01*
X52524Y-23131D01*
X52320Y-23142D01*
X52183Y-23198D01*
X52160Y-23289D01*
X52450Y-23579D01*
X52740Y-23289D01*
X52740Y-23431D01*
X52521Y-23650D01*
X52811Y-23940D01*
X52902Y-23917D01*
X52969Y-23724D01*
X52969Y-24475D01*
X52740Y-24475D01*
X52740Y-24011D01*
X52450Y-23721D01*
X52379Y-23792D01*
X52379Y-23650D01*
X52089Y-23360D01*
X51998Y-23383D01*
X51931Y-23576D01*
X51942Y-23780D01*
X51998Y-23917D01*
X52089Y-23940D01*
X52379Y-23650D01*
X52379Y-23792D01*
X52160Y-24011D01*
X52183Y-24102D01*
X52376Y-24169D01*
X52580Y-24158D01*
X52717Y-24102D01*
X52740Y-24011D01*
X52740Y-24475D01*
X51825Y-24475D01*
X51825Y-22275D01*
X51825Y-20450D01*
X51825Y-10775D01*
X61500Y-10775D01*
X63000Y-10775D01*
X63000Y-19908D01*
X62996Y-19898D01*
X62996Y-12228D01*
X62986Y-11993D01*
X62915Y-11822D01*
X62816Y-11789D01*
X62746Y-11859D01*
X62746Y-11719D01*
X62713Y-11620D01*
X62493Y-11539D01*
X62258Y-11549D01*
X62087Y-11620D01*
X62054Y-11719D01*
X62400Y-12064D01*
X62746Y-11719D01*
X62746Y-11859D01*
X62471Y-12135D01*
X62816Y-12481D01*
X62915Y-12448D01*
X62996Y-12228D01*
X62996Y-19898D01*
X62912Y-19694D01*
X62746Y-19528D01*
X62746Y-12551D01*
X62400Y-12206D01*
X62329Y-12276D01*
X62329Y-12135D01*
X61984Y-11789D01*
X61885Y-11822D01*
X61804Y-12042D01*
X61814Y-12277D01*
X61885Y-12448D01*
X61984Y-12481D01*
X62329Y-12135D01*
X62329Y-12276D01*
X62054Y-12551D01*
X62087Y-12650D01*
X62307Y-12731D01*
X62542Y-12721D01*
X62713Y-12650D01*
X62746Y-12551D01*
X62746Y-19528D01*
X62742Y-19524D01*
X62521Y-19432D01*
X62281Y-19432D01*
X62059Y-19523D01*
X61889Y-19693D01*
X61797Y-19914D01*
X61797Y-20154D01*
X61888Y-20376D01*
X62058Y-20546D01*
X62279Y-20638D01*
X62519Y-20638D01*
X62741Y-20547D01*
X62911Y-20377D01*
X63000Y-20163D01*
X63000Y-24475D01*
M02*
