M48
METRIC,TZ
T1C0.800
T2C0.813
T3C1.049
T4C1.199
T5C2.200
%
G90
G05
T1
X133541Y-29274
X133541Y-31814
X133541Y-34354
X133541Y-36894
X133541Y-39434
X133541Y-41974
X137605Y-42850
X137605Y-45339
X137605Y-47828
T2
X133223Y-60071
X137605Y-31814
X137605Y-34354
X137605Y-36894
X137605Y-39434
X142113Y-60071
X142748Y-48578
X145225Y-31814
X145225Y-34354
X145225Y-36894
X145225Y-39434
X145288Y-48578
X147828Y-48578
T3
X147295Y-61087
X157251Y-61087
T4
X158496Y-30823
X158496Y-50889
T5
X138240Y-53150
T0
M30
