G04 (created by PCBNEW-RS274X (2012-apr-16-27)-stable) date Sun 23 Mar 2014 20:21:50 GMT*
G01*
G70*
G90*
%MOIN*%
G04 Gerber Fmt 3.4, Leading zero omitted, Abs format*
%FSLAX34Y34*%
G04 APERTURE LIST*
%ADD10C,0.006000*%
%ADD11C,0.015000*%
%ADD12C,0.005000*%
%ADD13C,0.010000*%
%ADD14C,0.012000*%
%ADD15C,0.008000*%
%ADD16C,0.004900*%
%ADD17C,0.007900*%
G04 APERTURE END LIST*
G54D10*
G54D11*
X61020Y-20595D02*
X61020Y-19395D01*
X61020Y-20595D02*
X63780Y-20595D01*
X63780Y-20595D02*
X63780Y-19395D01*
X66740Y-15275D02*
X66657Y-16117D01*
X66412Y-16928D01*
X66014Y-17676D01*
X65479Y-18333D01*
X64826Y-18873D01*
X64081Y-19275D01*
X63272Y-19526D01*
X62430Y-19614D01*
X61587Y-19538D01*
X60775Y-19298D01*
X60024Y-18906D01*
X59364Y-18375D01*
X58820Y-17726D01*
X58411Y-16984D01*
X58155Y-16177D01*
X58061Y-15335D01*
X58132Y-14492D01*
X58365Y-13678D01*
X58752Y-12924D01*
X59279Y-12261D01*
X59924Y-11712D01*
X60663Y-11298D01*
X61469Y-11037D01*
X62310Y-10936D01*
X63153Y-11001D01*
X63969Y-11229D01*
X64725Y-11611D01*
X65392Y-12133D01*
X65946Y-12774D01*
X66364Y-13510D01*
X66632Y-14314D01*
X66738Y-15154D01*
X66740Y-15275D01*
G54D12*
X52700Y-23400D02*
X52700Y-24150D01*
X52700Y-24150D02*
X55700Y-24150D01*
X55700Y-24150D02*
X55700Y-23150D01*
X55700Y-23150D02*
X52700Y-23150D01*
X52700Y-23150D02*
X52700Y-23400D01*
X52450Y-23650D02*
X52700Y-23650D01*
X55700Y-23650D02*
X55950Y-23650D01*
X52700Y-23400D02*
X52950Y-23150D01*
G54D11*
X57655Y-16005D02*
X53695Y-16005D01*
X53695Y-16005D02*
X53695Y-12045D01*
X53695Y-12045D02*
X57655Y-12045D01*
X57655Y-12045D02*
X57655Y-16005D01*
G54D13*
X55175Y-16025D02*
X55175Y-15525D01*
X55175Y-15525D02*
X56175Y-15525D01*
X56175Y-15525D02*
X56175Y-16025D01*
G54D14*
X58700Y-18625D02*
X58700Y-19625D01*
X58700Y-19625D02*
X55700Y-19625D01*
X55700Y-19625D02*
X55700Y-18625D01*
X55700Y-18625D02*
X58700Y-18625D01*
X57700Y-19625D02*
X57700Y-18625D01*
G54D11*
X63110Y-24050D02*
X63049Y-24663D01*
X62871Y-25254D01*
X62582Y-25798D01*
X62192Y-26276D01*
X61717Y-26669D01*
X61174Y-26963D01*
X60585Y-27145D01*
X59972Y-27209D01*
X59358Y-27154D01*
X58767Y-26979D01*
X58220Y-26694D01*
X57740Y-26307D01*
X57343Y-25835D01*
X57046Y-25294D01*
X56860Y-24707D01*
X56791Y-24094D01*
X56842Y-23480D01*
X57012Y-22887D01*
X57294Y-22339D01*
X57677Y-21855D01*
X58147Y-21456D01*
X58685Y-21155D01*
X59272Y-20964D01*
X59884Y-20891D01*
X60498Y-20939D01*
X61092Y-21104D01*
X61643Y-21382D01*
X62129Y-21762D01*
X62532Y-22229D01*
X62836Y-22765D01*
X63031Y-23350D01*
X63108Y-23962D01*
X63110Y-24050D01*
X55325Y-20925D02*
X55307Y-21099D01*
X55257Y-21267D01*
X55174Y-21423D01*
X55063Y-21559D01*
X54928Y-21671D01*
X54773Y-21754D01*
X54605Y-21806D01*
X54431Y-21824D01*
X54257Y-21809D01*
X54088Y-21759D01*
X53933Y-21678D01*
X53796Y-21568D01*
X53683Y-21433D01*
X53598Y-21279D01*
X53545Y-21112D01*
X53526Y-20937D01*
X53540Y-20763D01*
X53589Y-20594D01*
X53669Y-20438D01*
X53778Y-20300D01*
X53912Y-20186D01*
X54065Y-20101D01*
X54232Y-20046D01*
X54407Y-20026D01*
X54581Y-20039D01*
X54750Y-20086D01*
X54907Y-20166D01*
X55045Y-20274D01*
X55160Y-20407D01*
X55247Y-20559D01*
X55302Y-20726D01*
X55324Y-20900D01*
X55325Y-20925D01*
G54D14*
X62329Y-16496D02*
X62357Y-16410D01*
X62386Y-16382D01*
X62443Y-16353D01*
X62529Y-16353D01*
X62586Y-16382D01*
X62614Y-16410D01*
X62643Y-16468D01*
X62643Y-16696D01*
X62043Y-16696D01*
X62043Y-16496D01*
X62071Y-16439D01*
X62100Y-16410D01*
X62157Y-16382D01*
X62214Y-16382D01*
X62271Y-16410D01*
X62300Y-16439D01*
X62329Y-16496D01*
X62329Y-16696D01*
X62043Y-16182D02*
X62043Y-15839D01*
X62643Y-16010D02*
X62043Y-16010D01*
X62643Y-15325D02*
X62643Y-15668D01*
X62643Y-15496D02*
X62043Y-15496D01*
X62129Y-15553D01*
X62186Y-15611D01*
X62214Y-15668D01*
X60854Y-17399D02*
X60882Y-17313D01*
X60911Y-17285D01*
X60968Y-17256D01*
X61054Y-17256D01*
X61111Y-17285D01*
X61139Y-17313D01*
X61168Y-17371D01*
X61168Y-17599D01*
X60568Y-17599D01*
X60568Y-17399D01*
X60596Y-17342D01*
X60625Y-17313D01*
X60682Y-17285D01*
X60739Y-17285D01*
X60796Y-17313D01*
X60825Y-17342D01*
X60854Y-17399D01*
X60854Y-17599D01*
X60996Y-17028D02*
X60996Y-16742D01*
X61168Y-17085D02*
X60568Y-16885D01*
X61168Y-16685D01*
X60568Y-16571D02*
X60568Y-16228D01*
X61168Y-16399D02*
X60568Y-16399D01*
X60568Y-16114D02*
X60568Y-15771D01*
X61168Y-15942D02*
X60568Y-15942D01*
X60854Y-15571D02*
X60854Y-15371D01*
X61168Y-15285D02*
X61168Y-15571D01*
X60568Y-15571D01*
X60568Y-15285D01*
X61168Y-14685D02*
X60882Y-14885D01*
X61168Y-15028D02*
X60568Y-15028D01*
X60568Y-14800D01*
X60596Y-14742D01*
X60625Y-14714D01*
X60682Y-14685D01*
X60768Y-14685D01*
X60825Y-14714D01*
X60854Y-14742D01*
X60882Y-14800D01*
X60882Y-15028D01*
X60882Y-14314D02*
X61168Y-14314D01*
X60568Y-14514D02*
X60882Y-14314D01*
X60568Y-14114D01*
G54D10*
X54159Y-22977D02*
X54025Y-22739D01*
X53930Y-22977D02*
X53930Y-22477D01*
X54083Y-22477D01*
X54121Y-22501D01*
X54140Y-22525D01*
X54159Y-22573D01*
X54159Y-22644D01*
X54140Y-22692D01*
X54121Y-22715D01*
X54083Y-22739D01*
X53930Y-22739D01*
X54540Y-22977D02*
X54311Y-22977D01*
X54425Y-22977D02*
X54425Y-22477D01*
X54387Y-22549D01*
X54349Y-22596D01*
X54311Y-22620D01*
G54D15*
X55236Y-16727D02*
X55236Y-16227D01*
X55707Y-16680D02*
X55686Y-16704D01*
X55622Y-16727D01*
X55579Y-16727D01*
X55514Y-16704D01*
X55472Y-16656D01*
X55450Y-16608D01*
X55429Y-16513D01*
X55429Y-16442D01*
X55450Y-16346D01*
X55472Y-16299D01*
X55514Y-16251D01*
X55579Y-16227D01*
X55622Y-16227D01*
X55686Y-16251D01*
X55707Y-16275D01*
X56136Y-16727D02*
X55879Y-16727D01*
X56007Y-16727D02*
X56007Y-16227D01*
X55964Y-16299D01*
X55922Y-16346D01*
X55879Y-16370D01*
X55735Y-15730D02*
X55735Y-15539D01*
X55877Y-15768D02*
X55377Y-15635D01*
X55877Y-15501D01*
X55377Y-15425D02*
X55377Y-15196D01*
X55877Y-15311D02*
X55377Y-15311D01*
X55377Y-15120D02*
X55377Y-14891D01*
X55877Y-15006D02*
X55377Y-15006D01*
X55877Y-14758D02*
X55377Y-14758D01*
X55877Y-14568D02*
X55377Y-14568D01*
X55877Y-14339D01*
X55377Y-14339D01*
X55639Y-14073D02*
X55877Y-14073D01*
X55377Y-14206D02*
X55639Y-14073D01*
X55377Y-13939D01*
X55592Y-13749D02*
X55568Y-13787D01*
X55544Y-13806D01*
X55496Y-13825D01*
X55473Y-13825D01*
X55425Y-13806D01*
X55401Y-13787D01*
X55377Y-13749D01*
X55377Y-13672D01*
X55401Y-13634D01*
X55425Y-13615D01*
X55473Y-13596D01*
X55496Y-13596D01*
X55544Y-13615D01*
X55568Y-13634D01*
X55592Y-13672D01*
X55592Y-13749D01*
X55615Y-13787D01*
X55639Y-13806D01*
X55687Y-13825D01*
X55782Y-13825D01*
X55830Y-13806D01*
X55854Y-13787D01*
X55877Y-13749D01*
X55877Y-13672D01*
X55854Y-13634D01*
X55830Y-13615D01*
X55782Y-13596D01*
X55687Y-13596D01*
X55639Y-13615D01*
X55615Y-13634D01*
X55592Y-13672D01*
X55377Y-13234D02*
X55377Y-13425D01*
X55615Y-13444D01*
X55592Y-13425D01*
X55568Y-13387D01*
X55568Y-13291D01*
X55592Y-13253D01*
X55615Y-13234D01*
X55663Y-13215D01*
X55782Y-13215D01*
X55830Y-13234D01*
X55854Y-13253D01*
X55877Y-13291D01*
X55877Y-13387D01*
X55854Y-13425D01*
X55830Y-13444D01*
X55687Y-13044D02*
X55687Y-12739D01*
X55877Y-12549D02*
X55377Y-12549D01*
X55377Y-12396D01*
X55401Y-12358D01*
X55425Y-12339D01*
X55473Y-12320D01*
X55544Y-12320D01*
X55592Y-12339D01*
X55615Y-12358D01*
X55639Y-12396D01*
X55639Y-12549D01*
G54D13*
X56542Y-18143D02*
X56599Y-18162D01*
X56695Y-18162D01*
X56733Y-18143D01*
X56752Y-18124D01*
X56771Y-18086D01*
X56771Y-18048D01*
X56752Y-18010D01*
X56733Y-17990D01*
X56695Y-17971D01*
X56618Y-17952D01*
X56580Y-17933D01*
X56561Y-17914D01*
X56542Y-17876D01*
X56542Y-17838D01*
X56561Y-17800D01*
X56580Y-17781D01*
X56618Y-17762D01*
X56714Y-17762D01*
X56771Y-17781D01*
X56904Y-17762D02*
X56999Y-18162D01*
X57076Y-17876D01*
X57152Y-18162D01*
X57247Y-17762D01*
X57609Y-18162D02*
X57380Y-18162D01*
X57494Y-18162D02*
X57494Y-17762D01*
X57456Y-17819D01*
X57418Y-17857D01*
X57380Y-17876D01*
X55572Y-20268D02*
X55629Y-20287D01*
X55725Y-20287D01*
X55763Y-20268D01*
X55782Y-20249D01*
X55801Y-20211D01*
X55801Y-20173D01*
X55782Y-20135D01*
X55763Y-20115D01*
X55725Y-20096D01*
X55648Y-20077D01*
X55610Y-20058D01*
X55591Y-20039D01*
X55572Y-20001D01*
X55572Y-19963D01*
X55591Y-19925D01*
X55610Y-19906D01*
X55648Y-19887D01*
X55744Y-19887D01*
X55801Y-19906D01*
X55934Y-19887D02*
X56029Y-20287D01*
X56106Y-20001D01*
X56182Y-20287D01*
X56277Y-19887D01*
X56429Y-20287D02*
X56429Y-19887D01*
X56562Y-19887D02*
X56791Y-19887D01*
X56676Y-20287D02*
X56676Y-19887D01*
X57153Y-20249D02*
X57134Y-20268D01*
X57077Y-20287D01*
X57039Y-20287D01*
X56981Y-20268D01*
X56943Y-20230D01*
X56924Y-20192D01*
X56905Y-20115D01*
X56905Y-20058D01*
X56924Y-19982D01*
X56943Y-19944D01*
X56981Y-19906D01*
X57039Y-19887D01*
X57077Y-19887D01*
X57134Y-19906D01*
X57153Y-19925D01*
X57324Y-20287D02*
X57324Y-19887D01*
X57324Y-20077D02*
X57553Y-20077D01*
X57553Y-20287D02*
X57553Y-19887D01*
X57648Y-20325D02*
X57953Y-20325D01*
X58048Y-20287D02*
X58048Y-19887D01*
X58238Y-20287D02*
X58238Y-19887D01*
X58467Y-20287D01*
X58467Y-19887D01*
X58600Y-19887D02*
X58733Y-20287D01*
X58867Y-19887D01*
G54D14*
X59268Y-22089D02*
X59354Y-22118D01*
X59497Y-22118D01*
X59554Y-22089D01*
X59583Y-22061D01*
X59611Y-22004D01*
X59611Y-21946D01*
X59583Y-21889D01*
X59554Y-21861D01*
X59497Y-21832D01*
X59383Y-21804D01*
X59325Y-21775D01*
X59297Y-21746D01*
X59268Y-21689D01*
X59268Y-21632D01*
X59297Y-21575D01*
X59325Y-21546D01*
X59383Y-21518D01*
X59525Y-21518D01*
X59611Y-21546D01*
X59868Y-22118D02*
X59868Y-21518D01*
X60096Y-21518D01*
X60154Y-21546D01*
X60182Y-21575D01*
X60211Y-21632D01*
X60211Y-21718D01*
X60182Y-21775D01*
X60154Y-21804D01*
X60096Y-21832D01*
X59868Y-21832D01*
X60782Y-22118D02*
X60439Y-22118D01*
X60611Y-22118D02*
X60611Y-21518D01*
X60554Y-21604D01*
X60496Y-21661D01*
X60439Y-21689D01*
X58004Y-23164D02*
X58090Y-23193D01*
X58233Y-23193D01*
X58290Y-23164D01*
X58319Y-23136D01*
X58347Y-23079D01*
X58347Y-23021D01*
X58319Y-22964D01*
X58290Y-22936D01*
X58233Y-22907D01*
X58119Y-22879D01*
X58061Y-22850D01*
X58033Y-22821D01*
X58004Y-22764D01*
X58004Y-22707D01*
X58033Y-22650D01*
X58061Y-22621D01*
X58119Y-22593D01*
X58261Y-22593D01*
X58347Y-22621D01*
X58604Y-23193D02*
X58604Y-22593D01*
X58832Y-22593D01*
X58890Y-22621D01*
X58918Y-22650D01*
X58947Y-22707D01*
X58947Y-22793D01*
X58918Y-22850D01*
X58890Y-22879D01*
X58832Y-22907D01*
X58604Y-22907D01*
X59204Y-22879D02*
X59404Y-22879D01*
X59490Y-23193D02*
X59204Y-23193D01*
X59204Y-22593D01*
X59490Y-22593D01*
X59718Y-23021D02*
X60004Y-23021D01*
X59661Y-23193D02*
X59861Y-22593D01*
X60061Y-23193D01*
X60261Y-23193D02*
X60261Y-22593D01*
X60604Y-23193D02*
X60347Y-22850D01*
X60604Y-22593D02*
X60261Y-22936D01*
X60861Y-22879D02*
X61061Y-22879D01*
X61147Y-23193D02*
X60861Y-23193D01*
X60861Y-22593D01*
X61147Y-22593D01*
X61747Y-23193D02*
X61547Y-22907D01*
X61404Y-23193D02*
X61404Y-22593D01*
X61632Y-22593D01*
X61690Y-22621D01*
X61718Y-22650D01*
X61747Y-22707D01*
X61747Y-22793D01*
X61718Y-22850D01*
X61690Y-22879D01*
X61632Y-22907D01*
X61404Y-22907D01*
G54D16*
X55080Y-18075D02*
X55094Y-18033D01*
X55094Y-17962D01*
X55080Y-17934D01*
X55066Y-17920D01*
X55038Y-17906D01*
X55010Y-17906D01*
X54982Y-17920D01*
X54967Y-17934D01*
X54953Y-17962D01*
X54939Y-18019D01*
X54925Y-18047D01*
X54911Y-18061D01*
X54883Y-18075D01*
X54855Y-18075D01*
X54827Y-18061D01*
X54813Y-18047D01*
X54799Y-18019D01*
X54799Y-17948D01*
X54813Y-17906D01*
X55094Y-17625D02*
X55094Y-17794D01*
X55094Y-17710D02*
X54799Y-17710D01*
X54841Y-17738D01*
X54869Y-17766D01*
X54883Y-17794D01*
X53530Y-19729D02*
X53544Y-19687D01*
X53544Y-19616D01*
X53530Y-19588D01*
X53516Y-19574D01*
X53488Y-19560D01*
X53460Y-19560D01*
X53432Y-19574D01*
X53417Y-19588D01*
X53403Y-19616D01*
X53389Y-19673D01*
X53375Y-19701D01*
X53361Y-19715D01*
X53333Y-19729D01*
X53305Y-19729D01*
X53277Y-19715D01*
X53263Y-19701D01*
X53249Y-19673D01*
X53249Y-19602D01*
X53263Y-19560D01*
X53249Y-19378D02*
X53249Y-19321D01*
X53263Y-19293D01*
X53291Y-19265D01*
X53347Y-19251D01*
X53446Y-19251D01*
X53502Y-19265D01*
X53530Y-19293D01*
X53544Y-19321D01*
X53544Y-19378D01*
X53530Y-19406D01*
X53502Y-19434D01*
X53446Y-19448D01*
X53347Y-19448D01*
X53291Y-19434D01*
X53263Y-19406D01*
X53249Y-19378D01*
X53249Y-19125D02*
X53488Y-19125D01*
X53516Y-19111D01*
X53530Y-19097D01*
X53544Y-19069D01*
X53544Y-19012D01*
X53530Y-18984D01*
X53516Y-18970D01*
X53488Y-18956D01*
X53249Y-18956D01*
X53544Y-18816D02*
X53249Y-18816D01*
X53544Y-18647D01*
X53249Y-18647D01*
X53544Y-18507D02*
X53249Y-18507D01*
X53249Y-18437D01*
X53263Y-18394D01*
X53291Y-18366D01*
X53319Y-18352D01*
X53375Y-18338D01*
X53417Y-18338D01*
X53474Y-18352D01*
X53502Y-18366D01*
X53530Y-18394D01*
X53544Y-18437D01*
X53544Y-18507D01*
X53572Y-18282D02*
X53572Y-18057D01*
X53530Y-18001D02*
X53544Y-17959D01*
X53544Y-17888D01*
X53530Y-17860D01*
X53516Y-17846D01*
X53488Y-17832D01*
X53460Y-17832D01*
X53432Y-17846D01*
X53417Y-17860D01*
X53403Y-17888D01*
X53389Y-17945D01*
X53375Y-17973D01*
X53361Y-17987D01*
X53333Y-18001D01*
X53305Y-18001D01*
X53277Y-17987D01*
X53263Y-17973D01*
X53249Y-17945D01*
X53249Y-17874D01*
X53263Y-17832D01*
X53389Y-17706D02*
X53389Y-17607D01*
X53544Y-17565D02*
X53544Y-17706D01*
X53249Y-17706D01*
X53249Y-17565D01*
X53544Y-17439D02*
X53249Y-17439D01*
X53544Y-17270D01*
X53249Y-17270D01*
X53530Y-17144D02*
X53544Y-17102D01*
X53544Y-17031D01*
X53530Y-17003D01*
X53516Y-16989D01*
X53488Y-16975D01*
X53460Y-16975D01*
X53432Y-16989D01*
X53417Y-17003D01*
X53403Y-17031D01*
X53389Y-17088D01*
X53375Y-17116D01*
X53361Y-17130D01*
X53333Y-17144D01*
X53305Y-17144D01*
X53277Y-17130D01*
X53263Y-17116D01*
X53249Y-17088D01*
X53249Y-17017D01*
X53263Y-16975D01*
X53249Y-16793D02*
X53249Y-16736D01*
X53263Y-16708D01*
X53291Y-16680D01*
X53347Y-16666D01*
X53446Y-16666D01*
X53502Y-16680D01*
X53530Y-16708D01*
X53544Y-16736D01*
X53544Y-16793D01*
X53530Y-16821D01*
X53502Y-16849D01*
X53446Y-16863D01*
X53347Y-16863D01*
X53291Y-16849D01*
X53263Y-16821D01*
X53249Y-16793D01*
X53544Y-16371D02*
X53403Y-16470D01*
X53544Y-16540D02*
X53249Y-16540D01*
X53249Y-16427D01*
X53263Y-16399D01*
X53277Y-16385D01*
X53305Y-16371D01*
X53347Y-16371D01*
X53375Y-16385D01*
X53389Y-16399D01*
X53403Y-16427D01*
X53403Y-16540D01*
G54D17*
X53502Y-15667D02*
X53187Y-15667D01*
X53187Y-15547D01*
X53202Y-15517D01*
X53217Y-15502D01*
X53247Y-15487D01*
X53292Y-15487D01*
X53322Y-15502D01*
X53337Y-15517D01*
X53352Y-15547D01*
X53352Y-15667D01*
X53502Y-15352D02*
X53187Y-15352D01*
X53502Y-15202D02*
X53187Y-15202D01*
X53502Y-15022D01*
X53187Y-15022D01*
X53532Y-14947D02*
X53532Y-14707D01*
X53337Y-14527D02*
X53352Y-14482D01*
X53367Y-14467D01*
X53397Y-14452D01*
X53442Y-14452D01*
X53472Y-14467D01*
X53487Y-14482D01*
X53502Y-14512D01*
X53502Y-14632D01*
X53187Y-14632D01*
X53187Y-14527D01*
X53202Y-14497D01*
X53217Y-14482D01*
X53247Y-14467D01*
X53277Y-14467D01*
X53307Y-14482D01*
X53322Y-14497D01*
X53337Y-14527D01*
X53337Y-14632D01*
X53502Y-14137D02*
X53352Y-14242D01*
X53502Y-14317D02*
X53187Y-14317D01*
X53187Y-14197D01*
X53202Y-14167D01*
X53217Y-14152D01*
X53247Y-14137D01*
X53292Y-14137D01*
X53322Y-14152D01*
X53337Y-14167D01*
X53352Y-14197D01*
X53352Y-14317D01*
X53337Y-14002D02*
X53337Y-13897D01*
X53502Y-13852D02*
X53502Y-14002D01*
X53187Y-14002D01*
X53187Y-13852D01*
X53412Y-13732D02*
X53412Y-13582D01*
X53502Y-13762D02*
X53187Y-13657D01*
X53502Y-13552D01*
X53502Y-13447D02*
X53187Y-13447D01*
X53502Y-13267D02*
X53322Y-13402D01*
X53187Y-13267D02*
X53367Y-13447D01*
X53187Y-13072D02*
X53187Y-13012D01*
X53202Y-12982D01*
X53232Y-12952D01*
X53292Y-12937D01*
X53397Y-12937D01*
X53457Y-12952D01*
X53487Y-12982D01*
X53502Y-13012D01*
X53502Y-13072D01*
X53487Y-13102D01*
X53457Y-13132D01*
X53397Y-13147D01*
X53292Y-13147D01*
X53232Y-13132D01*
X53202Y-13102D01*
X53187Y-13072D01*
X53187Y-12802D02*
X53442Y-12802D01*
X53472Y-12787D01*
X53487Y-12772D01*
X53502Y-12742D01*
X53502Y-12682D01*
X53487Y-12652D01*
X53472Y-12637D01*
X53442Y-12622D01*
X53187Y-12622D01*
X53187Y-12517D02*
X53187Y-12337D01*
X53502Y-12427D02*
X53187Y-12427D01*
M02*
